<svg version="1.1" xmlns="http://www.w3.org/2000/svg" xmlns:xlink="http://www.w3.org/1999/xlink" viewBox="0,0,256,256"><g fill-opacity="0.90588" fill="#8cbeb6" fill-rule="nonzero" stroke="none" stroke-width="1" stroke-linecap="butt" stroke-linejoin="miter" stroke-miterlimit="10" stroke-dasharray="" stroke-dashoffset="0" font-family="none" font-weight="none" font-size="none" text-anchor="none" style="mix-blend-mode: normal"><path d="M0,256v-256h256v256z" id="bgRectangle"></path></g><g fill="#000000" fill-rule="nonzero" stroke="none" stroke-width="1" stroke-linecap="butt" stroke-linejoin="miter" stroke-miterlimit="10" stroke-dasharray="" stroke-dashoffset="0" font-family="none" font-weight="none" font-size="none" text-anchor="none" style="mix-blend-mode: normal"><g transform="scale(5.12,5.12)"><path d="M7,2v46h36v-46zM9,4h32v42h-32zM17.40625,8c-2.17969,0.03906 -2.36328,1.71484 -1.9375,3.34375c0,0 -0.23047,0.23828 -0.21875,0.5625c0.02344,0.61328 0.4375,0.8125 0.4375,0.8125c0.07813,0.57031 0.57031,1.09375 0.75,1.1875c0,0.36328 0.03516,0.63281 0,1.03125c-0.42969,1.16016 -3.30469,0.82422 -3.4375,3.0625h8.875c-0.13281,-2.23828 -3.00391,-1.90234 -3.4375,-3.0625c-0.03516,-0.39844 0,-0.66797 0,-1.03125c0.24609,-0.11719 0.66797,-0.60937 0.75,-1.1875c0,0 0.4375,-0.26562 0.4375,-0.71875c0,-0.31641 -0.13281,-0.57031 -0.21875,-0.65625c0.23047,-0.69141 0.64063,-2.78125 -0.875,-2.78125c-0.16406,-0.28516 -0.57812,-0.5625 -1.125,-0.5625zM27.71875,10c-0.55078,0.07813 -0.9375,0.58984 -0.85937,1.14063c0.07813,0.55078 0.58984,0.9375 1.14063,0.85938h8c0.35938,0.00391 0.69531,-0.18359 0.87891,-0.49609c0.17969,-0.3125 0.17969,-0.69531 0,-1.00781c-0.18359,-0.3125 -0.51953,-0.5 -0.87891,-0.49609h-8c-0.03125,0 -0.0625,0 -0.09375,0c-0.03125,0 -0.0625,0 -0.09375,0c-0.03125,0 -0.0625,0 -0.09375,0zM27.71875,15c-0.55078,0.07813 -0.9375,0.58984 -0.85937,1.14063c0.07813,0.55078 0.58984,0.9375 1.14063,0.85938h8c0.35938,0.00391 0.69531,-0.18359 0.87891,-0.49609c0.17969,-0.3125 0.17969,-0.69531 0,-1.00781c-0.18359,-0.3125 -0.51953,-0.5 -0.87891,-0.49609h-8c-0.03125,0 -0.0625,0 -0.09375,0c-0.03125,0 -0.0625,0 -0.09375,0c-0.03125,0 -0.0625,0 -0.09375,0zM13.71875,25c-0.55078,0.07813 -0.9375,0.58984 -0.85937,1.14063c0.07813,0.55078 0.58984,0.9375 1.14063,0.85938h14c0.35938,0.00391 0.69531,-0.18359 0.87891,-0.49609c0.17969,-0.3125 0.17969,-0.69531 0,-1.00781c-0.18359,-0.3125 -0.51953,-0.5 -0.87891,-0.49609h-14c-0.03125,0 -0.0625,0 -0.09375,0c-0.03125,0 -0.0625,0 -0.09375,0c-0.03125,0 -0.0625,0 -0.09375,0zM32.71875,25c-0.55078,0.07813 -0.9375,0.58984 -0.85937,1.14063c0.07813,0.55078 0.58984,0.9375 1.14063,0.85938h3c0.35938,0.00391 0.69531,-0.18359 0.87891,-0.49609c0.17969,-0.3125 0.17969,-0.69531 0,-1.00781c-0.18359,-0.3125 -0.51953,-0.5 -0.87891,-0.49609h-3c-0.03125,0 -0.0625,0 -0.09375,0c-0.03125,0 -0.0625,0 -0.09375,0c-0.03125,0 -0.0625,0 -0.09375,0zM13.71875,31c-0.55078,0.07813 -0.9375,0.58984 -0.85937,1.14063c0.07813,0.55078 0.58984,0.9375 1.14063,0.85938h11c0.35938,0.00391 0.69531,-0.18359 0.87891,-0.49609c0.17969,-0.3125 0.17969,-0.69531 0,-1.00781c-0.18359,-0.3125 -0.51953,-0.5 -0.87891,-0.49609h-11c-0.03125,0 -0.0625,0 -0.09375,0c-0.03125,0 -0.0625,0 -0.09375,0c-0.03125,0 -0.0625,0 -0.09375,0zM32.71875,31c-0.55078,0.07813 -0.9375,0.58984 -0.85937,1.14063c0.07813,0.55078 0.58984,0.9375 1.14063,0.85938h3c0.35938,0.00391 0.69531,-0.18359 0.87891,-0.49609c0.17969,-0.3125 0.17969,-0.69531 0,-1.00781c-0.18359,-0.3125 -0.51953,-0.5 -0.87891,-0.49609h-3c-0.03125,0 -0.0625,0 -0.09375,0c-0.03125,0 -0.0625,0 -0.09375,0c-0.03125,0 -0.0625,0 -0.09375,0zM13.71875,37c-0.55078,0.07813 -0.9375,0.58984 -0.85937,1.14063c0.07813,0.55078 0.58984,0.9375 1.14063,0.85938h14c0.35938,0.00391 0.69531,-0.18359 0.87891,-0.49609c0.17969,-0.3125 0.17969,-0.69531 0,-1.00781c-0.18359,-0.3125 -0.51953,-0.5 -0.87891,-0.49609h-14c-0.03125,0 -0.0625,0 -0.09375,0c-0.03125,0 -0.0625,0 -0.09375,0c-0.03125,0 -0.0625,0 -0.09375,0zM32.71875,37c-0.55078,0.07813 -0.9375,0.58984 -0.85937,1.14063c0.07813,0.55078 0.58984,0.9375 1.14063,0.85938h3c0.35938,0.00391 0.69531,-0.18359 0.87891,-0.49609c0.17969,-0.3125 0.17969,-0.69531 0,-1.00781c-0.18359,-0.3125 -0.51953,-0.5 -0.87891,-0.49609h-3c-0.03125,0 -0.0625,0 -0.09375,0c-0.03125,0 -0.0625,0 -0.09375,0c-0.03125,0 -0.0625,0 -0.09375,0z"></path></g></g></svg>