<?xml version="1.0" encoding="UTF-8" standalone="no"?><!-- Generator: Gravit.io --><svg xmlns="http://www.w3.org/2000/svg" xmlns:xlink="http://www.w3.org/1999/xlink" style="isolation:isolate" viewBox="0 0 3000 3000" width="3000pt" height="3000pt"><defs><clipPath id="_clipPath_xUKfbVUoDwmnjuMO1IySJXp9SWy2VRL8"><rect width="3000" height="3000"/></clipPath></defs><g clip-path="url(#_clipPath_xUKfbVUoDwmnjuMO1IySJXp9SWy2VRL8)"><g style="isolation:isolate"/><path d=" M 2700.893 2701 L 500.432 2701 C 389.2 2701 298.893 2610.693 298.893 2499.46 L 298.893 299 L 553.787 553.894 L 553.787 2446.106 L 2445.999 2446.106 L 2700.893 2701 Z " fill="rgb(0,0,0)"/><path d=" M 2592.351 1000.708 C 2402.688 586.803 1984.635 299 1499.893 299 C 837.043 299 298.893 837.15 298.893 1500 L 298.893 1500 C 298.893 2162.85 837.043 2701 1499.893 2701 C 2162.743 2701 2700.893 2162.85 2700.893 1500 L 2700.893 1500 L 2445.999 1500 C 2446.029 1564.098 2439.581 1628.017 2426.762 1690.811 C 2414.317 1751.52 2395.875 1810.851 2371.72 1867.917 C 2347.91 1924.158 2318.702 1977.956 2284.486 2028.545 C 2250.465 2078.894 2211.691 2125.869 2168.719 2168.827 C 2125.762 2211.799 2078.787 2250.573 2028.438 2284.593 C 1977.849 2318.809 1924.051 2348.017 1867.81 2371.827 C 1810.743 2395.982 1751.413 2414.424 1690.703 2426.869 C 1627.909 2439.689 1563.991 2446.136 1499.893 2446.106 C 1435.794 2446.136 1371.876 2439.689 1309.082 2426.869 C 1248.372 2414.424 1189.042 2395.982 1131.976 2371.827 C 1075.734 2348.017 1021.937 2318.809 971.348 2284.593 C 920.999 2250.573 874.023 2211.799 831.066 2168.827 C 788.094 2125.869 749.32 2078.894 715.299 2028.545 C 681.084 1977.956 651.876 1924.158 628.066 1867.917 C 603.911 1810.851 585.468 1751.52 573.024 1690.811 C 560.204 1628.017 553.757 1564.098 553.787 1500 L 553.787 1500 C 553.757 1435.887 560.204 1371.938 573.039 1309.129 C 585.468 1248.48 603.911 1189.149 628.066 1132.083 C 651.876 1075.842 681.084 1022.044 715.299 971.455 C 749.32 921.106 788.094 874.131 831.066 831.173 C 874.023 788.201 920.999 749.427 971.348 715.407 C 1021.937 681.191 1075.734 651.983 1131.976 628.173 C 1189.042 604.018 1248.372 585.576 1309.082 573.131 C 1371.876 560.311 1435.794 553.864 1499.893 553.894 C 1563.991 553.864 1627.909 560.311 1690.703 573.131 C 1751.413 585.576 1810.743 604.018 1867.81 628.173 C 1924.051 651.983 1977.849 681.191 2028.438 715.407 C 2078.787 749.427 2125.762 788.201 2168.719 831.173 C 2211.691 874.131 2250.465 921.106 2284.486 971.455 C 2291.004 981.091 2297.339 990.844 2303.491 1000.708 L 2592.351 1000.708 Z " fill-rule="evenodd" fill="rgb(0,0,0)"/><path d=" M 1499.893 1627.447 L 1372.446 1627.447 L 1372.446 1372.553 L 1499.893 1372.553 L 2504.474 1372.553 L 2700.893 1372.553 Q 2704.391 1600.958 2688.898 1627.447 Q 2616.924 1627.447 2504.474 1627.447 L 1499.893 1627.447 Z " fill="rgb(0,0,0)"/></g></svg>